<?xml version="1.0" encoding="utf-8"?>
<!-- Generator: Adobe Illustrator 19.0.0, SVG Export Plug-In . SVG Version: 6.00 Build 0)  -->
<svg version="1.1" id="Layer_1" xmlns="http://www.w3.org/2000/svg" xmlns:xlink="http://www.w3.org/1999/xlink" x="0px" y="0px"
	 viewBox="0 0 79.5 72.7" style="enable-background:new 0 0 79.5 72.7;" xml:space="preserve">
<style type="text/css">
	.st0{fill:#1AB3C9;}
	.st1{fill:#E94041;}
	.st2{opacity:0.2;}
</style>
<g id="XMLID_15368_">
	<g id="XMLID_15369_">
		<rect id="XMLID_1121_" x="1.8" y="21.2" class="st0" width="75.9" height="51.5"/>
	</g>
	<g id="XMLID_15370_">
		<rect id="XMLID_1119_" x="0" y="12.7" class="st0" width="79.5" height="8.5"/>
	</g>
	<g id="XMLID_15371_">
		<g id="XMLID_15372_">
			<g id="XMLID_15373_">
				<path id="XMLID_1115_" class="st1" d="M58.4,13.9L58.4,13.9c-0.6,0-0.9,0-0.9,0l-1.3-0.1l0.1-1.3c0-0.3,0.4-6.9,4.3-10
					c2-1.6,3.9-2.4,5.8-2.4c1.6,0,3.1,0.6,4.2,1.8c1.1,1.1,1.6,2.5,1.6,3.9c-0.1,1.9-1.2,3.7-3.4,5.4C65.7,13.6,60.5,13.9,58.4,13.9
					z M66.3,2.7c-1.2,0-2.6,0.6-4.1,1.8c-2.1,1.7-2.9,4.9-3.2,6.7c1.9-0.1,5.8-0.4,8-2.2c1.5-1.2,2.3-2.4,2.4-3.5
					c0-0.7-0.2-1.3-0.8-1.9C68,3,67.2,2.7,66.3,2.7z"/>
			</g>
		</g>
		<g id="XMLID_15376_">
			<g id="XMLID_15377_">
				<path id="XMLID_1110_" class="st1" d="M56.7,13.9c-2.1,0-7.3-0.3-10.4-2.8c-2.1-1.7-3.3-3.6-3.4-5.4c-0.1-1.4,0.5-2.8,1.6-3.9
					C45.7,0.6,47.1,0,48.8,0c1.9,0,3.8,0.8,5.8,2.4c3.9,3.2,4.3,9.8,4.4,10l0.1,1.3l-1.3,0.1C57.6,13.9,57.3,13.9,56.7,13.9z
					 M48.8,2.7c-0.9,0-1.7,0.3-2.3,1c-0.6,0.6-0.8,1.2-0.8,1.9C45.7,6.6,46.5,7.8,48,9c2.2,1.8,6.1,2.1,8,2.2
					c-0.3-1.8-1.1-5-3.2-6.7C51.4,3.3,50,2.7,48.8,2.7z"/>
			</g>
		</g>
	</g>
	<g id="XMLID_15380_">
		<rect id="XMLID_1106_" x="53.9" y="21.2" class="st1" width="7.2" height="51.5"/>
	</g>
	<g id="XMLID_15381_">
		<rect id="XMLID_1103_" x="53.4" y="11.9" class="st1" width="8.3" height="9.3"/>
	</g>
	<g id="XMLID_15382_" class="st2">
		<rect id="XMLID_92_" x="1.8" y="21.2" width="75.9" height="2"/>
	</g>
	<g id="XMLID_1009_">
		<rect id="XMLID_1097_" x="1.8" y="38.4" class="st1" width="75.9" height="6.9"/>
	</g>
</g>
</svg>
