<?xml version="1.0" encoding="utf-8"?>
<!-- Generator: Adobe Illustrator 19.0.0, SVG Export Plug-In . SVG Version: 6.00 Build 0)  -->
<svg version="1.1" id="Layer_1" xmlns="http://www.w3.org/2000/svg" xmlns:xlink="http://www.w3.org/1999/xlink" x="0px" y="0px"
	 viewBox="0 0 74.6 65.8" style="enable-background:new 0 0 74.6 65.8;" xml:space="preserve">
<style type="text/css">
	.st0{fill:#E94142;}
	.st1{fill:#1AB3C9;}
	.st2{opacity:0.2;}
</style>
<g id="XMLID_92_">
	<g id="XMLID_238_">
		<rect id="XMLID_1217_" x="3.6" y="30.2" class="st0" width="68.2" height="35.6"/>
	</g>
	<g id="XMLID_237_">
		<rect id="XMLID_1214_" x="0" y="18.1" class="st0" width="74.6" height="12.1"/>
	</g>
	<g id="XMLID_226_">
		<g id="XMLID_232_">
			<g id="XMLID_233_">
				<g id="XMLID_234_">
					<path id="XMLID_1209_" class="st1" d="M39,19.7L39,19.7c-0.8,0-1.3,0-1.3,0l-1.9-0.1l0.1-1.9c0-0.4,0.6-9.8,6.2-14.3
						C44.9,1.1,47.7,0,50.3,0c2.3,0,4.4,0.9,6,2.6c1.6,1.6,2.3,3.5,2.2,5.5c-0.1,2.7-1.8,5.2-4.8,7.7C49.4,19.3,42,19.7,39,19.7z
						 M50.3,3.8c-1.7,0-3.7,0.9-5.8,2.6c-2.9,2.4-4.1,6.9-4.5,9.5c2.7-0.1,8.3-0.6,11.4-3.1c2.1-1.7,3.3-3.4,3.4-5
						c0.1-0.9-0.3-1.8-1.1-2.6C52.7,4.3,51.6,3.8,50.3,3.8z"/>
				</g>
			</g>
		</g>
		<g id="XMLID_227_">
			<g id="XMLID_228_">
				<g id="XMLID_229_">
					<path id="XMLID_1201_" class="st1" d="M36.7,19.7c-3,0-10.4-0.4-14.8-3.9c-3-2.5-4.7-5-4.8-7.7c-0.1-2,0.7-3.9,2.2-5.5
						C21,0.9,23.1,0,25.4,0c2.6,0,5.4,1.1,8.2,3.4c5.6,4.5,6.2,13.9,6.2,14.3l0.1,1.9L38,19.7C38,19.7,37.5,19.7,36.7,19.7z
						 M25.4,3.8c-1.3,0-2.4,0.5-3.3,1.4c-0.8,0.8-1.2,1.7-1.1,2.6c0.1,1.5,1.3,3.2,3.4,5c3.1,2.5,8.7,3,11.4,3.1
						c-0.4-2.6-1.6-7.2-4.5-9.5C29.1,4.7,27.1,3.8,25.4,3.8z"/>
				</g>
			</g>
		</g>
	</g>
	<g id="XMLID_225_">
		<rect id="XMLID_255_" x="30.7" y="30.2" class="st1" width="14.4" height="35.6"/>
	</g>
	<g id="XMLID_198_">
		<rect id="XMLID_254_" x="29.6" y="17" class="st1" width="16.5" height="13.2"/>
	</g>
	<g id="XMLID_197_" class="st2">
		<rect id="XMLID_247_" x="3.6" y="30.2" width="68.2" height="2.9"/>
	</g>
</g>
</svg>
