<?xml version="1.0" encoding="utf-8"?>
<!-- Generator: Adobe Illustrator 19.0.0, SVG Export Plug-In . SVG Version: 6.00 Build 0)  -->
<svg version="1.1" id="Layer_1" xmlns="http://www.w3.org/2000/svg" xmlns:xlink="http://www.w3.org/1999/xlink" x="0px" y="0px"
	 viewBox="0 0 86 67.8" style="enable-background:new 0 0 86 67.8;" xml:space="preserve">
<style type="text/css">
	.st0{fill:#FDC01B;}
	.st1{fill:#7BC144;}
	.st2{opacity:0.2;}
</style>
<g id="XMLID_15831_">
	<g id="XMLID_15834_">
		<rect id="XMLID_198_" x="2" y="31.1" class="st0" width="81.5" height="36.7"/>
	</g>
	<g id="XMLID_15837_">
		<rect id="XMLID_197_" x="0" y="18.7" class="st0" width="86" height="12.5"/>
	</g>
	<g id="XMLID_15838_">
		<g id="XMLID_15839_">
			<g id="XMLID_15840_">
				<path id="XMLID_866_" class="st1" d="M52,20.3L52,20.3c-0.8,0-1.2,0-1.2,0L49,20.2l0.1-2c0-0.4,0.6-10.1,5.9-14.7
					C57.7,1.2,60.4,0,62.9,0c2.2,0,4.2,0.9,5.8,2.6c1.5,1.6,2.2,3.6,2.1,5.7c-0.1,2.7-1.7,5.4-4.6,7.9C62,19.9,54.9,20.3,52,20.3z
					 M62.9,3.9c-1.7,0-3.6,0.9-5.6,2.6c-2.8,2.4-3.9,7.1-4.3,9.8c2.6-0.1,8-0.6,10.9-3.2c2-1.8,3.2-3.5,3.3-5.1c0-1-0.3-1.9-1.1-2.7
					C65.2,4.4,64.1,3.9,62.9,3.9z"/>
			</g>
		</g>
		<g id="XMLID_15843_">
			<g id="XMLID_15844_">
				<path id="XMLID_861_" class="st1" d="M49.8,20.3c-2.9,0-10-0.4-14.2-4.1c-2.9-2.5-4.5-5.2-4.6-7.9c-0.1-2.1,0.6-4.1,2.1-5.7
					C34.7,0.9,36.7,0,38.9,0c2.5,0,5.2,1.2,7.9,3.5c5.3,4.6,5.9,14.3,5.9,14.7l0.1,2L51,20.3C51,20.3,50.6,20.3,49.8,20.3z
					 M38.9,3.9c-1.2,0-2.3,0.5-3.2,1.5c-0.8,0.8-1.1,1.8-1.1,2.7c0.1,1.6,1.2,3.3,3.3,5.1c3,2.6,8.3,3.1,10.9,3.2
					c-0.4-2.7-1.5-7.4-4.3-9.8C42.5,4.8,40.6,3.9,38.9,3.9z"/>
			</g>
		</g>
	</g>
	<g id="XMLID_15847_">
		<rect id="XMLID_857_" x="44" y="31.1" class="st1" width="13.8" height="36.7"/>
	</g>
	<g id="XMLID_15848_">
		<rect id="XMLID_855_" x="43" y="17.5" class="st1" width="15.8" height="13.6"/>
	</g>
	<g id="XMLID_15849_" class="st2">
		<rect id="XMLID_92_" x="2" y="31.1" width="81.5" height="3"/>
	</g>
</g>
</svg>
