<?xml version="1.0" encoding="utf-8"?>
<!-- Generator: Adobe Illustrator 19.0.0, SVG Export Plug-In . SVG Version: 6.00 Build 0)  -->
<svg version="1.1" id="Layer_1" xmlns="http://www.w3.org/2000/svg" xmlns:xlink="http://www.w3.org/1999/xlink" x="0px" y="0px"
	 viewBox="0 0 22.1 20.1" style="enable-background:new 0 0 22.1 20.1;" xml:space="preserve">
<style type="text/css">
	.st0{fill:#E94142;}
	.st1{fill:#FFFFFF;}
</style>
<g id="XMLID_15396_">
	<g id="XMLID_971_" transform="translate(0 -1028.4)">
		<g id="XMLID_972_">
			<path id="XMLID_92_" class="st0" d="M6,1028.4c-1.5,0-3.1,0.5-4.3,1.7c-2.4,2.4-2.3,6.1,0,8.5l9.3,9.8l9.3-9.8
				c2.3-2.4,2.4-6.1,0-8.5c-2.4-2.3-6.2-2.3-8.5,0l-0.8,0.8l-0.8-0.8C9.1,1028.9,7.6,1028.4,6,1028.4z"/>
		</g>
	</g>
	<g id="XMLID_968_" transform="translate(0 -1028.4)">
		<g id="XMLID_15399_">
			<g id="XMLID_15401_">
				<path id="XMLID_979_" class="st1" d="M3.2,1037.1c-1.5-1.6-1.5-4.1,0-5.6c0.7-0.7,1.7-1.1,2.8-1.1s2.1,0.4,2.8,1.1l-1.2,1.2
					c-0.5-0.5-1.1-0.6-1.6-0.6c-0.4,0-1.1,0.1-1.6,0.6c-0.9,0.9-0.9,2.3,0,3.2L3.2,1037.1z"/>
			</g>
		</g>
	</g>
</g>
</svg>
