<?xml version="1.0" encoding="utf-8"?>
<!-- Generator: Adobe Illustrator 19.0.0, SVG Export Plug-In . SVG Version: 6.00 Build 0)  -->
<svg version="1.1" id="Layer_1" xmlns="http://www.w3.org/2000/svg" xmlns:xlink="http://www.w3.org/1999/xlink" x="0px" y="0px"
	 viewBox="0 0 110.2 37.5" style="enable-background:new 0 0 110.2 37.5;" xml:space="preserve">
<style type="text/css">
	.st0{fill:#96512A;}
	.st1{fill:#A55C36;}
	.st2{opacity:0.2;}
	.st3{opacity:0.2;clip-path:url(#XMLID_198_);}
</style>
<g id="XMLID_15383_">
	<g id="XMLID_1775_">
		<path id="XMLID_1093_" class="st0" d="M54,0l41.4,0c8.2,0,14.8,8.4,14.8,18.8c0,10.4-6.6,18.8-14.8,18.8l-80.7,0V0h17.6h6.2"/>
	</g>
	<g id="XMLID_1004_">
		<ellipse id="XMLID_92_" class="st1" cx="14.8" cy="18.8" rx="14.8" ry="18.8"/>
	</g>
	<g id="XMLID_15384_" class="st2">
		<g id="XMLID_1001_">
			<path id="XMLID_1085_" d="M14.8,32.1c-5.7,0-10.3-6-10.3-13.4c0-7.4,4.6-13.4,10.3-13.4c5.7,0,10.3,6,10.3,13.4
				C25.1,26.1,20.5,32.1,14.8,32.1z M14.8,8.2c-4.1,0-7.5,4.7-7.5,10.5c0,5.8,3.3,10.5,7.5,10.5c4.1,0,7.5-4.7,7.5-10.5
				C22.2,13,18.9,8.2,14.8,8.2z"/>
		</g>
	</g>
	<g id="XMLID_15386_" class="st2">
		<g id="XMLID_997_">
			<path id="XMLID_1076_" d="M14.8,24.1c-2.2,0-3.9-2.3-3.9-5.3s1.7-5.3,3.9-5.3c2.2,0,3.9,2.3,3.9,5.3S17,24.1,14.8,24.1z
				 M14.8,16.3c-0.3,0-1,0.9-1,2.4c0,1.5,0.7,2.4,1,2.4c0.3,0,1-0.9,1-2.4C15.8,17.2,15.1,16.3,14.8,16.3z"/>
		</g>
	</g>
	<g id="XMLID_15387_">
		<defs>
			<path id="XMLID_1042_" d="M95.4,0H14.8C6.6,0,0,8.4,0,18.8c0,10.4,6.6,18.8,14.8,18.8h80.7c8.2,0,14.8-8.4,14.8-18.8
				C110.2,8.4,103.6,0,95.4,0z"/>
		</defs>
		<clipPath id="XMLID_198_">
			<use xlink:href="#XMLID_1042_"  style="overflow:visible;"/>
		</clipPath>
		<g id="XMLID_15388_" class="st3">
			<g id="XMLID_15389_">
				<g id="XMLID_995_">
					<rect id="XMLID_1072_" x="33.8" y="7.2" width="35.9" height="2.9"/>
				</g>
			</g>
			<g id="XMLID_15390_">
				<g id="XMLID_993_">
					<rect id="XMLID_1066_" x="57.5" y="17.6" width="30.2" height="2.9"/>
				</g>
			</g>
			<g id="XMLID_15391_">
				<g id="XMLID_991_">
					<rect id="XMLID_1062_" x="32.6" y="27.4" width="24.2" height="2.9"/>
				</g>
			</g>
			<g id="XMLID_15392_">
				<g id="XMLID_989_">
					<rect id="XMLID_1059_" x="66.5" y="27.4" width="30.2" height="2.9"/>
				</g>
			</g>
			<g id="XMLID_15393_">
				<g id="XMLID_987_">
					<rect id="XMLID_1054_" x="33.6" y="17.6" width="16.5" height="2.9"/>
				</g>
			</g>
			<g id="XMLID_15394_">
				<g id="XMLID_985_">
					<rect id="XMLID_1049_" x="96.2" y="17.6" width="9.7" height="2.9"/>
				</g>
			</g>
			<g id="XMLID_15395_">
				<g id="XMLID_983_">
					<rect id="XMLID_1046_" x="76.4" y="7.2" width="32.2" height="2.9"/>
				</g>
			</g>
		</g>
	</g>
</g>
</svg>
