<?xml version="1.0" encoding="utf-8"?>
<!-- Generator: Adobe Illustrator 19.0.0, SVG Export Plug-In . SVG Version: 6.00 Build 0)  -->
<svg version="1.1" id="Layer_1" xmlns="http://www.w3.org/2000/svg" xmlns:xlink="http://www.w3.org/1999/xlink" x="0px" y="0px"
	 viewBox="0 0 43.5 54.7" style="enable-background:new 0 0 43.5 54.7;" xml:space="preserve">
<style type="text/css">
	.st0{fill:#E94142;}
	.st1{fill:#E8E8E8;}
	.st2{opacity:0.1;}
	.st3{clip-path:url(#XMLID_408_);}
</style>
<g id="XMLID_15702_">
	<g id="XMLID_15703_">
		<g id="XMLID_15707_">
			<g id="XMLID_92_">
				<path id="XMLID_908_" class="st0" d="M11.7,18.7v7.1c-0.4,0-0.8-0.1-1.2-0.1C4.7,25.7,0,30.4,0,36.2C0,42,4.7,46.7,10.5,46.7
					c0.4,0,0.8,0,1.2-0.1v8h31.9v-36H11.7z M10.5,41.9c-3.1,0-5.7-2.5-5.7-5.7c0-3.1,2.5-5.7,5.7-5.7c0.4,0,0.8,0,1.2,0.1v11.1
					C11.3,41.8,10.9,41.9,10.5,41.9z"/>
			</g>
		</g>
	</g>
	<g id="XMLID_15708_">
		<g id="XMLID_791_">
			<path id="XMLID_904_" class="st1" d="M15.9,13.9H14c0-1.5,0.6-2.3,1.2-2.9c0.4-0.5,0.7-0.9,0.7-1.7c0-0.8-0.3-1.2-0.7-1.7
				C14.7,6.9,14,6.1,14,4.6c0-1.5,0.6-2.3,1.2-2.9c0.4-0.5,0.7-0.9,0.7-1.7l1.9,0c0,1.5-0.6,2.3-1.2,2.9c-0.4,0.5-0.7,0.9-0.7,1.7
				c0,0.8,0.3,1.2,0.7,1.7c0.5,0.6,1.2,1.4,1.2,2.9c0,1.5-0.6,2.3-1.2,2.9C16.2,12.7,15.9,13.1,15.9,13.9z"/>
		</g>
	</g>
	<g id="XMLID_15709_">
		<g id="XMLID_789_">
			<path id="XMLID_901_" class="st1" d="M23.6,13.9h-1.9c0-1.5,0.6-2.3,1.2-2.9c0.4-0.5,0.7-0.9,0.7-1.7c0-0.8-0.3-1.2-0.7-1.7
				c-0.5-0.6-1.2-1.4-1.2-2.9c0-1.5,0.6-2.3,1.2-2.9c0.4-0.5,0.7-0.9,0.7-1.7l1.9,0c0,1.5-0.6,2.3-1.2,2.9c-0.4,0.5-0.7,0.9-0.7,1.7
				c0,0.8,0.3,1.2,0.7,1.7c0.5,0.6,1.2,1.4,1.2,2.9c0,1.5-0.6,2.3-1.2,2.9C23.9,12.7,23.6,13.1,23.6,13.9z"/>
		</g>
	</g>
	<g id="XMLID_15710_">
		<g id="XMLID_787_">
			<path id="XMLID_898_" class="st1" d="M31.4,13.9h-1.9c0-1.5,0.6-2.3,1.2-2.9c0.4-0.5,0.7-0.9,0.7-1.7c0-0.8-0.3-1.2-0.7-1.7
				c-0.5-0.6-1.2-1.4-1.2-2.9c0-1.5,0.6-2.3,1.2-2.9c0.4-0.5,0.7-0.9,0.7-1.7l1.9,0c0,1.5-0.6,2.3-1.2,2.9c-0.4,0.5-0.7,0.9-0.7,1.7
				c0,0.8,0.3,1.2,0.7,1.7c0.5,0.6,1.2,1.4,1.2,2.9c0,1.5-0.6,2.3-1.2,2.9C31.6,12.7,31.4,13.1,31.4,13.9z"/>
		</g>
	</g>
	<g id="XMLID_15711_">
		<g id="XMLID_785_">
			<path id="XMLID_895_" class="st1" d="M39.1,13.9h-1.9c0-1.5,0.6-2.3,1.2-2.9c0.4-0.5,0.7-0.9,0.7-1.7c0-0.8-0.3-1.2-0.7-1.7
				c-0.5-0.6-1.2-1.4-1.2-2.9c0-1.5,0.6-2.3,1.2-2.9c0.4-0.5,0.7-0.9,0.7-1.7L41,0c0,1.5-0.6,2.3-1.2,2.9c-0.4,0.5-0.7,0.9-0.7,1.7
				c0,0.8,0.3,1.2,0.7,1.7C40.3,7,41,7.8,41,9.3c0,1.5-0.6,2.3-1.2,2.9C39.3,12.7,39.1,13.1,39.1,13.9z"/>
		</g>
	</g>
	<g id="XMLID_15712_" class="st2">
		<defs>
			<rect id="XMLID_876_" x="11.7" y="18.7" class="st2" width="31.9" height="36"/>
		</defs>
		<clipPath id="XMLID_408_">
			<use xlink:href="#XMLID_876_"  style="overflow:visible;"/>
		</clipPath>
		<g id="XMLID_15713_" class="st3">
			<g id="XMLID_15714_">
				<g id="XMLID_783_">
					
						<rect id="XMLID_892_" x="-18.7" y="47.8" transform="matrix(1.247317e-04 1 -1 1.247317e-04 63.5981 33.9249)" width="67.2" height="1.9"/>
				</g>
			</g>
			<g id="XMLID_15715_">
				<g id="XMLID_781_">
					
						<rect id="XMLID_889_" x="-12.3" y="41.3" transform="matrix(9.932363e-05 1 -1 9.932363e-05 63.5049 20.9743)" width="67.2" height="1.9"/>
				</g>
			</g>
			<g id="XMLID_15716_">
				<g id="XMLID_779_">
					
						<rect id="XMLID_886_" x="-5.9" y="34.8" transform="matrix(1.270448e-04 1 -1 1.270448e-04 63.4123 8.0198)" width="67.2" height="1.9"/>
				</g>
			</g>
			<g id="XMLID_15717_">
				<g id="XMLID_777_">
					
						<rect id="XMLID_883_" x="0.5" y="28.2" transform="matrix(1.270416e-04 1 -1 1.270416e-04 63.3177 -4.9342)" width="67.2" height="1.9"/>
				</g>
			</g>
			<g id="XMLID_15718_">
				<g id="XMLID_775_">
					
						<rect id="XMLID_880_" x="7" y="21.7" transform="matrix(1.270413e-04 1 -1 1.270413e-04 63.2274 -17.8856)" width="67.2" height="1.9"/>
				</g>
			</g>
		</g>
	</g>
</g>
</svg>
