<?xml version="1.0" encoding="utf-8"?>
<!-- Generator: Adobe Illustrator 19.0.0, SVG Export Plug-In . SVG Version: 6.00 Build 0)  -->
<svg version="1.1" id="Layer_1" xmlns="http://www.w3.org/2000/svg" xmlns:xlink="http://www.w3.org/1999/xlink" x="0px" y="0px"
	 viewBox="0 0 55 72.1" style="enable-background:new 0 0 55 72.1;" xml:space="preserve">
<style type="text/css">
	.st0{fill:#7BC144;}
	.st1{opacity:0.2;}
</style>
<g id="XMLID_572_">
	<g id="XMLID_2375_">
		<polygon id="XMLID_1123_" class="st0" points="55,72.1 41.6,46.5 48.4,46.5 37.1,23.9 43,23.9 27.5,0 11.9,23.9 17.9,23.9 
			6.6,46.5 13.3,46.5 0,72.1 		"/>
	</g>
	<g id="XMLID_573_" class="st1">
		<g id="XMLID_92_">
			<polygon id="XMLID_197_" points="38.1,57.6 37,56 28.4,61.8 28.4,51.9 35.6,47 34.5,45.4 28.4,49.5 28.4,40.1 34.5,36 33.4,34.3 
				28.4,37.7 28.4,28.2 33.2,25 32.1,23.4 28.4,25.9 28.4,15.8 26.5,15.8 26.5,25.9 22.8,23.4 21.7,25 26.5,28.2 26.5,37.7 
				21.5,34.3 20.4,36 26.5,40.1 26.5,49.5 20.5,45.4 19.4,47 26.5,51.9 26.5,61.8 17.9,56 16.8,57.6 26.5,64.2 26.5,72.1 28.4,72.1 
				28.4,64.2 			"/>
		</g>
	</g>
</g>
</svg>
