<?xml version="1.0" encoding="utf-8"?>
<!-- Generator: Adobe Illustrator 19.0.0, SVG Export Plug-In . SVG Version: 6.00 Build 0)  -->
<svg version="1.1" id="Layer_1" xmlns="http://www.w3.org/2000/svg" xmlns:xlink="http://www.w3.org/1999/xlink" x="0px" y="0px"
	 viewBox="0 0 25.5 27.4" style="enable-background:new 0 0 25.5 27.4;" xml:space="preserve">
<style type="text/css">
	.st0{fill:#1AB3C9;}
</style>
<polygon id="XMLID_416_" class="st0" points="25.5,19 24.9,16.9 21.9,17.7 15,13.7 21.9,9.7 24.9,10.5 25.4,8.3 23.1,7.7 23.7,5.3 
	21.6,4.8 20.8,7.8 13.8,11.8 13.8,3.8 16,1.6 14.4,0 12.7,1.7 11,0 9.4,1.6 11.6,3.8 11.6,11.8 4.7,7.8 3.9,4.8 1.7,5.4 2.4,7.7 
	0,8.4 0.6,10.5 3.6,9.7 10.5,13.7 3.6,17.7 0.6,16.9 0,19.1 2.4,19.7 1.7,22.1 3.9,22.6 4.7,19.6 11.6,15.6 11.6,23.6 9.4,25.8 
	11,27.4 12.7,25.7 14.5,27.4 16,25.8 13.9,23.6 13.8,15.6 20.8,19.6 21.6,22.6 23.7,22 23.1,19.7 "/>
</svg>
