<?xml version="1.0" encoding="utf-8"?>
<!-- Generator: Adobe Illustrator 19.0.0, SVG Export Plug-In . SVG Version: 6.00 Build 0)  -->
<svg version="1.1" id="Layer_1" xmlns="http://www.w3.org/2000/svg" xmlns:xlink="http://www.w3.org/1999/xlink" x="0px" y="0px"
	 viewBox="0 0 39.7 43.2" style="enable-background:new 0 0 39.7 43.2;" xml:space="preserve">
<style type="text/css">
	.st0{fill:#1AB3C9;}
</style>
<path id="XMLID_417_" class="st0" d="M39.7,30.5l-0.6-2.1l-3.6,1l-3.2-1.8l0-11.8l3.1-1.8l3.6,1l0.6-2.2l-3-0.8l0.8-3l-2.2-0.6
	l-1,3.6l-3.1,1.8L20.9,7.8l0-3.6l2.7-2.7L22,0l-2.2,2.2L17.6,0l-1.6,1.6l2.6,2.6l0,3.6L8.5,13.8l-3.2-1.8l-1-3.6L2.2,9L3,12l-3,0.8
	l0.6,2.1l3.7-1l3.1,1.8l0,11.8l-3.1,1.8l-3.6-1L0,30.5l3,0.8l-0.8,3l2.2,0.6l1-3.6l3.1-1.8l10.3,5.9l0,3.6l-2.7,2.7l1.6,1.6l2.2-2.2
	l2.2,2.2l1.6-1.6L21,39l0-3.6l10.2-5.9l3.2,1.8l1,3.6l2.2-0.6l-0.8-3L39.7,30.5z M30.1,26.2l-8-4.6l8-4.6L30.1,26.2z M29,15l-8,4.6
	l0-9.3L29,15z M18.7,10.4l0,9.3l-8-4.6L18.7,10.4z M9.6,17l8,4.6l-8,4.6L9.6,17z M10.7,28.2l8-4.6l0,9.3L10.7,28.2z M21,32.8l0-9.3
	l8,4.6L21,32.8z"/>
</svg>
