<?xml version="1.0" encoding="utf-8"?>
<!-- Generator: Adobe Illustrator 19.0.0, SVG Export Plug-In . SVG Version: 6.00 Build 0)  -->
<svg version="1.1" id="Layer_1" xmlns="http://www.w3.org/2000/svg" xmlns:xlink="http://www.w3.org/1999/xlink" x="0px" y="0px"
	 viewBox="0 0 42.9 56.2" style="enable-background:new 0 0 42.9 56.2;" xml:space="preserve">
<style type="text/css">
	.st0{fill:#FDC018;}
	.st1{opacity:0.1;}
	.st2{clip-path:url(#XMLID_371_);}
	.st3{fill:#E94142;}
</style>
<g id="XMLID_15666_">
	<g id="XMLID_15667_">
		<circle id="XMLID_952_" class="st0" cx="21.4" cy="34.7" r="21.4"/>
	</g>
	<g id="XMLID_15668_" class="st1">
		<defs>
			<circle id="XMLID_926_" class="st1" cx="21.4" cy="34.7" r="21.4"/>
		</defs>
		<clipPath id="XMLID_371_">
			<use xlink:href="#XMLID_926_"  style="overflow:visible;"/>
		</clipPath>
		<g id="XMLID_15669_" class="st2">
			<g id="XMLID_15670_">
				<g id="XMLID_15671_">
					
						<rect id="XMLID_949_" x="15.7" y="34" transform="matrix(0.712 0.7021 -0.7021 0.712 38.0729 -23.0166)" width="62.7" height="1.8"/>
				</g>
			</g>
			<g id="XMLID_15672_">
				<g id="XMLID_15673_">
					
						<rect id="XMLID_945_" x="7.2" y="34" transform="matrix(0.712 0.7021 -0.7021 0.712 35.6111 -17.0123)" width="62.7" height="1.8"/>
				</g>
			</g>
			<g id="XMLID_15674_">
				<g id="XMLID_15675_">
					
						<rect id="XMLID_942_" x="-1.4" y="34" transform="matrix(0.7121 0.7021 -0.7021 0.7121 33.1472 -11.0086)" width="62.7" height="1.8"/>
				</g>
			</g>
			<g id="XMLID_15676_">
				<g id="XMLID_15677_">
					
						<rect id="XMLID_939_" x="-9.9" y="34" transform="matrix(0.712 0.7021 -0.7021 0.712 30.6865 -5.0044)" width="62.7" height="1.8"/>
				</g>
			</g>
			<g id="XMLID_15678_">
				<g id="XMLID_15679_">
					
						<rect id="XMLID_936_" x="-18.5" y="34" transform="matrix(0.712 0.7021 -0.7021 0.712 28.2227 1.001)" width="62.7" height="1.8"/>
				</g>
			</g>
			<g id="XMLID_15680_">
				<g id="XMLID_15681_">
					
						<rect id="XMLID_933_" x="-27" y="34" transform="matrix(0.712 0.7021 -0.7021 0.712 25.7612 7.0046)" width="62.7" height="1.8"/>
				</g>
			</g>
			<g id="XMLID_15682_">
				<g id="XMLID_15683_">
					
						<rect id="XMLID_930_" x="-35.6" y="34" transform="matrix(0.712 0.7021 -0.7021 0.712 23.2988 13.0086)" width="62.7" height="1.8"/>
				</g>
			</g>
		</g>
	</g>
	<g id="XMLID_15691_">
		<g id="XMLID_341_">
			<path id="XMLID_920_" class="st3" d="M21.4,8.2c-2.3,0-4.1-1.8-4.1-4.1c0-2.3,1.8-4.1,4.1-4.1c2.3,0,4.1,1.8,4.1,4.1
				C25.6,6.4,23.7,8.2,21.4,8.2z M21.4,1.9c-1.2,0-2.3,1-2.3,2.3c0,1.2,1,2.3,2.3,2.3s2.3-1,2.3-2.3C23.7,2.9,22.7,1.9,21.4,1.9z"/>
		</g>
	</g>
	<g id="XMLID_15697_">
		<polyline id="XMLID_340_" class="st3" points="27.1,14.1 27.1,7.8 15.8,7.8 15.8,14.1 		"/>
	</g>
	<g id="XMLID_15700_">
		<path id="XMLID_92_" class="st3" d="M0,34.7c0,2.1,0.3,4.1,0.9,6H42c0.6-1.9,0.9-3.9,0.9-6c0-2.1-0.3-4.1-0.9-6H0.9
			C0.3,30.6,0,32.6,0,34.7z"/>
	</g>
</g>
</svg>
