<?xml version="1.0" encoding="utf-8"?>
<!-- Generator: Adobe Illustrator 19.0.0, SVG Export Plug-In . SVG Version: 6.00 Build 0)  -->
<svg version="1.1" id="Layer_1" xmlns="http://www.w3.org/2000/svg" xmlns:xlink="http://www.w3.org/1999/xlink" x="0px" y="0px"
	 viewBox="0 0 59.2 69.6" style="enable-background:new 0 0 59.2 69.6;" xml:space="preserve">
<style type="text/css">
	.st0{fill:#1AB3C9;}
	.st1{fill:#FDC01B;}
	.st2{clip-path:url(#XMLID_146_);}
	.st3{fill:#E94041;}
	.st4{fill:#FFFFFF;}
	.st5{opacity:0.2;}
</style>
<g id="XMLID_92_">
	<g id="XMLID_130_">
		<path id="XMLID_131_" class="st0" d="M55.9,50.2H3.3V22.6c0-4.8,3.9-8.8,8.8-8.8h35.1c4.8,0,8.8,3.9,8.8,8.8V50.2z"/>
	</g>
	<g id="XMLID_128_">
		<circle id="XMLID_129_" class="st1" cx="29.6" cy="7.4" r="7.4"/>
	</g>
	<g id="XMLID_116_">
		<defs>
			<path id="XMLID_118_" d="M55.9,50.2H3.3V22.6c0-4.8,3.9-8.8,8.8-8.8h35.1c4.8,0,8.8,3.9,8.8,8.8V50.2z"/>
		</defs>
		<use xlink:href="#XMLID_118_"  style="overflow:visible;fill:#7BC144;"/>
		<clipPath id="XMLID_146_">
			<use xlink:href="#XMLID_118_"  style="overflow:visible;"/>
		</clipPath>
		<g id="XMLID_125_" class="st2">
			<g id="XMLID_126_">
				<polygon id="XMLID_127_" class="st3" points="9,43 1.4,35.9 2.9,34.4 9,40 15.9,33.7 22.7,40 29.6,33.7 36.4,40 43.3,33.7 
					50.2,40 56.3,34.4 57.8,35.9 50.2,43 43.3,36.6 36.4,43 29.6,36.6 22.7,43 15.9,36.6 				"/>
			</g>
		</g>
		<g id="XMLID_122_" class="st2">
			<g id="XMLID_123_">
				<polygon id="XMLID_124_" class="st3" points="9,32.4 1.4,25.3 2.9,23.8 9,29.5 15.9,23.1 22.7,29.5 29.6,23.1 36.4,29.5 
					43.3,23.1 50.2,29.5 56.3,23.8 57.8,25.3 50.2,32.4 43.3,26 36.4,32.4 29.6,26 22.7,32.4 15.9,26 				"/>
			</g>
		</g>
		<g id="XMLID_119_" class="st2">
			<g id="XMLID_120_">
				<polygon id="XMLID_121_" class="st4" points="9,37.7 1.4,30.6 2.9,29.1 9,34.8 15.9,28.4 22.7,34.8 29.6,28.4 36.4,34.8 
					43.3,28.4 50.2,34.8 56.3,29.1 57.8,30.6 50.2,37.7 43.3,31.3 36.4,37.7 29.6,31.3 22.7,37.7 15.9,31.3 				"/>
			</g>
		</g>
	</g>
	<g id="XMLID_114_">
		<rect id="XMLID_115_" x="0" y="49.8" class="st0" width="59.2" height="19.7"/>
	</g>
	<g id="XMLID_95_" class="st5">
		<g id="XMLID_111_">
			<g id="XMLID_112_">
				<rect id="XMLID_113_" x="7.7" y="49.8" width="2.1" height="19.7"/>
			</g>
		</g>
		<g id="XMLID_108_">
			<g id="XMLID_109_">
				<rect id="XMLID_110_" x="16.1" y="49.8" width="2.1" height="19.7"/>
			</g>
		</g>
		<g id="XMLID_105_">
			<g id="XMLID_106_">
				<rect id="XMLID_107_" x="24.4" y="49.8" width="2.1" height="19.7"/>
			</g>
		</g>
		<g id="XMLID_102_">
			<g id="XMLID_103_">
				<rect id="XMLID_104_" x="32.7" y="49.8" width="2.1" height="19.7"/>
			</g>
		</g>
		<g id="XMLID_99_">
			<g id="XMLID_100_">
				<rect id="XMLID_101_" x="49.3" y="49.8" width="2.1" height="19.7"/>
			</g>
		</g>
		<g id="XMLID_96_">
			<g id="XMLID_97_">
				<rect id="XMLID_98_" x="41" y="49.8" width="2.1" height="19.7"/>
			</g>
		</g>
	</g>
	<g id="XMLID_93_" class="st5">
		<rect id="XMLID_94_" x="3.3" y="47.5" width="52.7" height="2.4"/>
	</g>
</g>
</svg>
