<?xml version="1.0" encoding="utf-8"?>
<!-- Generator: Adobe Illustrator 19.0.0, SVG Export Plug-In . SVG Version: 6.00 Build 0)  -->
<svg version="1.1" id="Layer_1" xmlns="http://www.w3.org/2000/svg" xmlns:xlink="http://www.w3.org/1999/xlink" x="0px" y="0px"
	 viewBox="0 0 262.2 145.1" style="enable-background:new 0 0 262.2 145.1;" xml:space="preserve">
<style type="text/css">
	.st0{fill:#1AB3C9;}
	.st1{fill:#E8E8E8;}
	.st2{fill:#FDC01B;}
	.st3{fill:#E94142;}
	.st4{fill:#96512A;}
	.st5{opacity:0.2;}
	.st6{fill:#A55C36;}
	.st7{fill:#484748;}
	.st8{clip-path:url(#XMLID_306_);}
</style>
<g id="XMLID_92_">
	<g id="XMLID_1763_">
		<path id="XMLID_810_" class="st0" d="M221.6,19.7v125.4H36V19.7c0,0,24.3-12.8,91.7-12.8S221.6,19.7,221.6,19.7z"/>
	</g>
	<g id="XMLID_1642_">
		<rect id="XMLID_808_" x="214.2" y="23" class="st1" width="28.1" height="122.1"/>
	</g>
	<g id="XMLID_1630_">
		<rect id="XMLID_806_" x="211.3" y="138.9" class="st1" width="33.8" height="6.2"/>
	</g>
	<g id="XMLID_1649_">
		<rect id="XMLID_804_" x="19.9" y="23" class="st1" width="28.1" height="122.1"/>
	</g>
	<g id="XMLID_1664_">
		<g id="XMLID_1762_">
			<path id="XMLID_802_" class="st2" d="M112.3,85.6c0,0,1.6,1.5,2.3-6.4c0.7-7.9-4-16.5-4-16.5s-2.7,15.8-11.2,19.6
				c-3.9,1.7,1.9,4.6,5.9,5.4C109.4,88.5,112.3,85.6,112.3,85.6z"/>
		</g>
		<g id="XMLID_1761_">
			<path id="XMLID_800_" class="st2" d="M91.5,81c0,0-2.8,1.4-0.4-10s12.8-21.3,12.8-21.3S100.7,73,111,82c4.7,4.1-4.6,5.7-10.7,5
				C94.3,86.3,91.5,81,91.5,81z"/>
		</g>
		<g id="XMLID_1760_">
			<path id="XMLID_798_" class="st3" d="M110.9,73.2c0,0-2,5.4-4.8,7.6c-6.2-3.4-7.8-14.6-7.8-14.6s-3.5,5.2-5.3,10.7
				c-1.8,5.5,0.3,4.8,0.3,4.8s2.1,2.6,6.5,2.9c0.6,0,1.3,0.1,2.1,0.1c0.5,0.1,1.1,0.2,1.6,0.3c3,0.4,5.2-1,5.2-1s1.9,1,2.4-2.9
				C111.4,77.3,110.9,73.2,110.9,73.2z"/>
		</g>
		<g id="XMLID_1731_">
			<g id="XMLID_1757_">
				<path id="XMLID_247_" class="st4" d="M81.6,109.3l77.3,11.8c7.1,1.1,14-5.3,15.4-14.3c1.4-9-3.2-17.2-10.3-18.3L86.7,76.7
					c-7.1-1.1-14,5.3-15.4,14.3C69.9,100,74.5,108.2,81.6,109.3z"/>
			</g>
			<g id="XMLID_1741_" class="st5">
				<g id="XMLID_1755_">
					<g id="XMLID_1756_">
						<polygon id="XMLID_794_" points="133.5,108.4 142.1,109.5 141.7,112 133.1,110.9 						"/>
					</g>
				</g>
				<g id="XMLID_1753_">
					<g id="XMLID_1754_">
						
							<rect id="XMLID_790_" x="118.8" y="98.9" transform="matrix(-0.988 -0.1542 0.1542 -0.988 247.2443 219.5744)" width="26.6" height="2.5"/>
					</g>
				</g>
				<g id="XMLID_1751_">
					<g id="XMLID_1752_">
						
							<rect id="XMLID_784_" x="87.5" y="94" transform="matrix(-0.988 -0.1542 0.1542 -0.988 185.7616 205.0311)" width="26.6" height="2.5"/>
					</g>
				</g>
				<g id="XMLID_1749_">
					<g id="XMLID_1750_">
						<polygon id="XMLID_778_" points="147.4,92.6 143.2,91.6 142.8,94.1 147,95.1 						"/>
					</g>
				</g>
				<g id="XMLID_1747_">
					<g id="XMLID_1748_">
						
							<rect id="XMLID_773_" x="84.1" y="87" transform="matrix(-0.988 -0.1542 0.1542 -0.988 208.2656 192.6504)" width="55" height="2.5"/>
					</g>
				</g>
				<g id="XMLID_1745_">
					<g id="XMLID_1746_">
						<polygon id="XMLID_769_" points="151.9,102 143.9,100.4 143.5,102.9 151.5,104.5 						"/>
					</g>
				</g>
				<g id="XMLID_1743_">
					<g id="XMLID_1744_">
						
							<rect id="XMLID_766_" x="75" y="90.7" transform="matrix(-0.988 -0.1542 0.1542 -0.988 143.4058 195.0121)" width="8.6" height="2.5"/>
					</g>
				</g>
				<g id="XMLID_1742_">
					<path id="XMLID_763_" d="M72.5,101.5l54.7,8.5l0.4-2.5l-56-8.7C71.8,99.7,72.1,100.6,72.5,101.5z"/>
				</g>
			</g>
			<g id="XMLID_1732_">
				<g id="XMLID_1737_" class="st5">
					<g id="XMLID_1738_">
						<path id="XMLID_758_" d="M163.3,93.1c5,0.8,8.2,6.6,7.2,13.1c-1,6.4-5.9,11-10.8,10.2c-5-0.8-8.2-6.6-7.2-13.1
							C153.5,96.9,158.3,92.3,163.3,93.1z M160,113.9c3.6,0.6,7.1-3.1,7.9-8.1c0.8-5-1.5-9.6-5.1-10.2c-3.6-0.6-7.1,3.1-7.9,8.1
							C154.2,108.8,156.5,113.3,160,113.9z"/>
					</g>
				</g>
				<g id="XMLID_1733_" class="st5">
					<g id="XMLID_1734_">
						<path id="XMLID_753_" d="M162.2,100.1c1.9,0.3,3.1,2.6,2.7,5.1c-0.4,2.6-2.2,4.4-4.1,4.1c-1.9-0.3-3.1-2.6-2.7-5.1
							C158.5,101.6,160.3,99.8,162.2,100.1z M161.1,106.8c0.3,0,1-0.7,1.2-2c0.2-1.3-0.3-2.2-0.6-2.2c-0.3,0-1,0.7-1.2,2
							C160.4,105.9,160.9,106.8,161.1,106.8z"/>
					</g>
				</g>
			</g>
		</g>
		<g id="XMLID_1730_" class="st5">
			<path id="XMLID_238_" d="M77.4,107.9l77.3,11.8c7.1,1.1,14-5.3,15.4-14.3c1-6.6-1.2-12.7-5.1-16l-85.4,9.4
				c-3.5,0.4-6.5,2.5-8.5,5.7C72.8,106.2,74.9,107.5,77.4,107.9z"/>
		</g>
		<g id="XMLID_1729_">
			<path id="XMLID_746_" class="st2" d="M177.2,99.1c-0.8-6.5-10.4-7.5-3.9-25.4c3.9-10.6-7.9-19-7.9-19s1.6,13.6-4.1,13.5
				c-10.8-0.2-2.9-17.8-2.9-17.8s-4.5,1-8.9,6.3c-4.4,5.3-2.8,13.7-0.4,20.1c3.9,10.2-11.5,9.3-8.3-0.7c3.9-10.6-5.7-20.7-5.7-20.7
				s0.6,15.3-5.1,15.2c-0.3-18.7-12.7-19.2-12.7-19.2c2.2,7.7,2.7,13.3-0.4,20.9c-3.1,7.6-11.1,14.3-7.9,31.9
				c2.3,12.6,25.6,6.7,30.4,5.3c1.5,2.3,2.7,3.7,2.7,3.7h30.2C172.5,113.1,178.1,106,177.2,99.1z"/>
		</g>
		<g id="XMLID_1728_">
			<path id="XMLID_744_" class="st3" d="M165.9,78.3c0,0-2.7,1.7-5.5,1.6c-3.7-0.1-5.8-2.8-5.8-2.8c1.2,5.8,2.1,15.2-7,17.2
				c-9.5,2.1-15.1-8.7-15.4-13.2c-4.1,4.4-5.9,5-5.9,5c-0.4-4-0.9-6.1-2.4-8.5c-3,8.3-7.3,11.6-9,17.1c-1.5,5-0.1,11-0.1,11
				l10.7-1.4l7.7,1c0,0,0.1-0.2,0.2-0.5c1.8-0.4,6.5-1.3,10.6-2.1l16.3,0.9l7.1-2.3c0,0,5.3-0.5,2.3-4.4
				C161.5,86.5,165.9,78.3,165.9,78.3z"/>
		</g>
		<g id="XMLID_1696_">
			<g id="XMLID_1725_">
				<path id="XMLID_237_" class="st4" d="M87.4,135.9l98.8-10.9c7.1-0.8,12.1-8.8,11.1-17.8c-1-9.1-7.6-15.8-14.7-15L83.8,103
					c-7.1,0.8-12.1,8.8-11.1,17.8C73.7,129.9,80.3,136.7,87.4,135.9z"/>
			</g>
			<g id="XMLID_1722_">
				
					<ellipse id="XMLID_236_" transform="matrix(-0.994 0.1097 -0.1097 -0.994 379.7018 196.2143)" class="st6" cx="184.5" cy="108.6" rx="13" ry="16.5"/>
			</g>
			<g id="XMLID_1706_" class="st5">
				<g id="XMLID_1720_">
					<g id="XMLID_1721_">
						
							<rect id="XMLID_738_" x="137.3" y="119.8" transform="matrix(-0.994 0.1097 -0.1097 -0.994 316.9146 224.7539)" width="30" height="2.5"/>
					</g>
				</g>
				<g id="XMLID_1718_">
					<g id="XMLID_1719_">
						
							<rect id="XMLID_735_" x="120.5" y="112.6" transform="matrix(-0.994 0.1097 -0.1097 -0.994 279.318 212.389)" width="26.6" height="2.5"/>
					</g>
				</g>
				<g id="XMLID_1716_">
					<g id="XMLID_1717_">
						
							<rect id="XMLID_732_" x="89" y="116.1" transform="matrix(-0.994 0.1097 -0.1097 -0.994 216.9022 222.7726)" width="26.6" height="2.5"/>
					</g>
				</g>
				<g id="XMLID_1714_">
					<g id="XMLID_1715_">
						
							<rect id="XMLID_729_" x="146.7" y="101.6" transform="matrix(-0.994 0.1097 -0.1097 -0.994 320.591 188.0314)" width="16.9" height="2.5"/>
					</g>
				</g>
				<g id="XMLID_1712_">
					<g id="XMLID_1713_">
						
							<rect id="XMLID_726_" x="83.4" y="106.4" transform="matrix(-0.994 0.1097 -0.1097 -0.994 232.8902 202.6216)" width="55" height="2.5"/>
					</g>
				</g>
				<g id="XMLID_1710_">
					<g id="XMLID_1711_">
						
							<rect id="XMLID_723_" x="153.4" y="109.7" transform="matrix(-0.994 0.1097 -0.1097 -0.994 331.1842 203.7604)" width="13.1" height="2.5"/>
					</g>
				</g>
				<g id="XMLID_1708_">
					<g id="XMLID_1709_">
						
							<rect id="XMLID_720_" x="76.3" y="118.5" transform="matrix(-0.994 0.1097 -0.1097 -0.994 173.9037 229.926)" width="8.6" height="2.5"/>
					</g>
				</g>
				<g id="XMLID_1707_">
					<path id="XMLID_717_" d="M76.6,130.7l55.1-6.1l-0.3-2.5L75,128.3C75.5,129.2,76,130,76.6,130.7z"/>
				</g>
			</g>
			<g id="XMLID_1697_">
				<g id="XMLID_1702_" class="st5">
					<g id="XMLID_1703_">
						<path id="XMLID_712_" d="M183.2,96.8c5-0.6,9.6,4.3,10.3,10.7c0.7,6.5-2.8,12.2-7.8,12.7c-5,0.6-9.6-4.3-10.3-10.7
							C174.7,103.1,178.2,97.4,183.2,96.8z M185.5,117.8c3.6-0.4,6.1-4.8,5.5-9.9c-0.6-5.1-3.9-8.9-7.6-8.5
							c-3.6,0.4-6.1,4.8-5.5,9.9C178.5,114.3,181.9,118.1,185.5,117.8z"/>
					</g>
				</g>
				<g id="XMLID_1698_" class="st5">
					<g id="XMLID_1699_">
						<path id="XMLID_704_" d="M183.9,103.9c1.9-0.2,3.6,1.7,3.9,4.3c0.3,2.6-1,4.8-2.9,5c-1.9,0.2-3.6-1.7-3.9-4.3
							C180.8,106.3,182,104.1,183.9,103.9z M184.7,110.7c0.3,0,0.8-0.9,0.7-2.2c-0.1-1.3-0.9-2.1-1.1-2c-0.3,0-0.8,0.9-0.7,2.2
							C183.7,110,184.4,110.7,184.7,110.7z"/>
					</g>
				</g>
			</g>
		</g>
		<g id="XMLID_1679_">
			<g id="XMLID_1695_">
				<rect id="XMLID_692_" x="60.4" y="133.8" class="st7" width="139.7" height="5.1"/>
			</g>
			<g id="XMLID_1692_">
				<g id="XMLID_1694_">
					<rect id="XMLID_689_" x="68.4" y="103.5" class="st7" width="5.4" height="41.6"/>
				</g>
				<g id="XMLID_1693_">
					<rect id="XMLID_686_" x="66.9" y="102.4" class="st7" width="8.3" height="3.2"/>
				</g>
			</g>
			<g id="XMLID_1689_">
				<g id="XMLID_1691_">
					<rect id="XMLID_682_" x="96.9" y="103.5" class="st7" width="5.4" height="41.6"/>
				</g>
				<g id="XMLID_1690_">
					<rect id="XMLID_679_" x="95.5" y="102.4" class="st7" width="8.3" height="3.2"/>
				</g>
			</g>
			<g id="XMLID_1686_">
				<g id="XMLID_1688_">
					<rect id="XMLID_675_" x="125.4" y="103.5" class="st7" width="5.4" height="41.6"/>
				</g>
				<g id="XMLID_1687_">
					<rect id="XMLID_672_" x="124" y="102.4" class="st7" width="8.3" height="3.2"/>
				</g>
			</g>
			<g id="XMLID_1683_">
				<g id="XMLID_1685_">
					<rect id="XMLID_668_" x="154" y="103.5" class="st7" width="5.4" height="41.6"/>
				</g>
				<g id="XMLID_1684_">
					<rect id="XMLID_665_" x="152.5" y="102.4" class="st7" width="8.3" height="3.2"/>
				</g>
			</g>
			<g id="XMLID_1680_">
				<g id="XMLID_1682_">
					<rect id="XMLID_661_" x="182.5" y="103.5" class="st7" width="5.4" height="41.6"/>
				</g>
				<g id="XMLID_1681_">
					<rect id="XMLID_659_" x="181.1" y="102.4" class="st7" width="8.3" height="3.2"/>
				</g>
			</g>
		</g>
		<g id="XMLID_1665_">
			<defs>
				<rect id="XMLID_635_" x="67.3" y="97.4" width="29.5" height="48.2"/>
			</defs>
			<clipPath id="XMLID_306_">
				<use xlink:href="#XMLID_635_"  style="overflow:visible;"/>
			</clipPath>
			<g id="XMLID_1667_" class="st8">
				<g id="XMLID_1676_">
					<path id="XMLID_235_" class="st4" d="M87.4,135.9l98.8-10.9c7.1-0.8,3.5-33.6-3.6-32.8L83.8,103c-7.1,0.8-12.1,8.8-11.1,17.8
						C73.7,129.9,80.3,136.7,87.4,135.9z"/>
				</g>
				<g id="XMLID_1668_" class="st5">
					<g id="XMLID_1674_">
						<g id="XMLID_1675_">
							
								<rect id="XMLID_651_" x="89" y="116.1" transform="matrix(-0.994 0.1097 -0.1097 -0.994 216.9022 222.7726)" width="26.6" height="2.5"/>
						</g>
					</g>
					<g id="XMLID_1672_">
						<g id="XMLID_1673_">
							
								<rect id="XMLID_647_" x="83.4" y="106.4" transform="matrix(-0.994 0.1097 -0.1097 -0.994 232.8902 202.6216)" width="55" height="2.5"/>
						</g>
					</g>
					<g id="XMLID_1670_">
						<g id="XMLID_1671_">
							
								<rect id="XMLID_643_" x="76.3" y="118.5" transform="matrix(-0.994 0.1097 -0.1097 -0.994 173.9037 229.926)" width="8.6" height="2.5"/>
						</g>
					</g>
					<g id="XMLID_1669_">
						<path id="XMLID_639_" d="M76.6,130.7l55.1-6.1l-0.3-2.5L75,128.3C75.5,129.2,76,130,76.6,130.7z"/>
					</g>
				</g>
			</g>
		</g>
	</g>
	<g id="XMLID_1638_">
		<g id="XMLID_1641_" class="st5">
			<path id="XMLID_234_" d="M220.9,139.6h-1.1c-0.4,0-0.8-0.4-0.8-0.8V35c0-0.4,0.4-0.8,0.8-0.8h1.1c0.4,0,0.8,0.4,0.8,0.8v103.8
				C221.7,139.3,221.3,139.6,220.9,139.6z"/>
		</g>
		<g id="XMLID_1640_" class="st5">
			<path id="XMLID_233_" d="M228.9,139.6h-1.1c-0.4,0-0.8-0.4-0.8-0.8V35c0-0.4,0.4-0.8,0.8-0.8h1.1c0.4,0,0.8,0.4,0.8,0.8v103.8
				C229.7,139.3,229.3,139.6,228.9,139.6z"/>
		</g>
		<g id="XMLID_1639_" class="st5">
			<path id="XMLID_232_" d="M236.9,139.6h-1.1c-0.4,0-0.8-0.4-0.8-0.8V35c0-0.4,0.4-0.8,0.8-0.8h1.1c0.4,0,0.8,0.4,0.8,0.8v103.8
				C237.7,139.3,237.4,139.6,236.9,139.6z"/>
		</g>
	</g>
	<g id="XMLID_1634_" class="st5">
		<g id="XMLID_1636_">
			<rect id="XMLID_621_" x="19.9" y="26.8" width="28.1" height="2.4"/>
		</g>
		<g id="XMLID_1635_">
			<rect id="XMLID_619_" x="214.2" y="26.8" width="28.1" height="2.4"/>
		</g>
	</g>
	<g id="XMLID_1633_">
		<rect id="XMLID_600_" x="16.8" y="138.9" class="st1" width="33.8" height="6.2"/>
	</g>
	<g id="XMLID_1652_">
		<g id="XMLID_231_">
			<polygon id="XMLID_596_" class="st1" points="3.3,5.1 3.3,10.2 15.8,26.8 246.3,26.8 258.9,10.2 258.9,5.1 			"/>
		</g>
		<g id="XMLID_228_">
			<g id="XMLID_229_">
				<rect id="XMLID_230_" x="0" y="0" class="st1" width="262.2" height="5.2"/>
			</g>
		</g>
		<g id="XMLID_226_" class="st5">
			<rect id="XMLID_227_" x="3.3" y="5" width="255.6" height="1.8"/>
		</g>
	</g>
	<g id="XMLID_1645_">
		<g id="XMLID_1648_" class="st5">
			<path id="XMLID_225_" d="M26.6,139.6h-1.1c-0.4,0-0.8-0.4-0.8-0.8V35c0-0.4,0.4-0.8,0.8-0.8h1.1c0.4,0,0.8,0.4,0.8,0.8v103.8
				C27.4,139.3,27,139.6,26.6,139.6z"/>
		</g>
		<g id="XMLID_1647_" class="st5">
			<path id="XMLID_198_" d="M34.6,139.6h-1.1c-0.4,0-0.8-0.4-0.8-0.8V35c0-0.4,0.4-0.8,0.8-0.8h1.1c0.4,0,0.8,0.4,0.8,0.8v103.8
				C35.4,139.3,35,139.6,34.6,139.6z"/>
		</g>
		<g id="XMLID_1646_" class="st5">
			<path id="XMLID_197_" d="M42.6,139.6h-1.1c-0.4,0-0.8-0.4-0.8-0.8V35c0-0.4,0.4-0.8,0.8-0.8h1.1c0.4,0,0.8,0.4,0.8,0.8v103.8
				C43.4,139.3,43.1,139.6,42.6,139.6z"/>
		</g>
	</g>
</g>
</svg>
